<svg fill="#FFFFFF" xmlns:dc="http://purl.org/dc/elements/1.1/" xmlns:cc="http://creativecommons.org/ns#" xmlns:rdf="http://www.w3.org/1999/02/22-rdf-syntax-ns#" xmlns:svg="http://www.w3.org/2000/svg" xmlns="http://www.w3.org/2000/svg" xmlns:sodipodi="http://sodipodi.sourceforge.net/DTD/sodipodi-0.dtd" xmlns:inkscape="http://www.inkscape.org/namespaces/inkscape" version="1.1" x="0px" y="0px" viewBox="0 0 100 100"><g transform="translate(0,-952.36218)"><path style="text-indent:0;text-transform:none;direction:ltr;block-progression:tb;baseline-shift:baseline;color:#000000;enable-background:accumulate;" d="m 7.9938348,1006.8143 a 1.0001,1.0001 0 0 0 -0.86,1.5004 c 0,0 3.5068002,6.0629 10.9674982,10.7475 7.4605,4.6844 18.9691,8.0019 34.7122,2.7446 0,-10e-5 10e-4,-4e-4 0.002,-6e-4 12.3907,-4.1118 20.7938,-5.2157 26.73,-5.0937 5.9364,0.122 9.3896,1.4443 12.1431,2.3468 a 1.0001,1.0001 0 0 0 0.9816,-1.6928 c -6.5632,-5.9223 -13.0051,-8.3486 -19.4275,-8.8806 -6.4225,-0.5319 -12.796,0.7821 -19.4154,2.1741 -13.2387,2.7839 -27.4028,5.9551 -45.3527982,-3.726 a 1.0001,1.0001 0 0 0 -0.4803,-0.1197 z m 62.2396982,3.5522 c 0.9521,-10e-4 1.8995,0.034 2.8434,0.1125 4.7475,0.3932 9.4243,1.8373 14.26,5.19 -2.0803,-0.4923 -4.6099,-0.8917 -7.7509,-0.9562 -6.2229,-0.1279 -14.8559,1.0319 -27.4025,5.1956 a 1.0001,1.0001 0 0 0 -0.002,6e-4 c -15.2314,5.0869 -25.9719,1.8828 -33.0168,-2.5406 -3.600098,-2.2605 -6.207998,-4.8348 -7.899998,-6.8134 16.800098,7.6715 30.652598,4.6531 42.973698,2.0621 5.5788,-1.1731 10.854,-2.2449 15.995,-2.2506 z" fill="#FFFFFF" fill-opacity="1" fill-rule="evenodd" stroke="none" marker="none" visibility="visible" display="inline" overflow="visible"></path><path style="text-indent:0;text-transform:none;direction:ltr;block-progression:tb;baseline-shift:baseline;color:#000000;enable-background:accumulate;" d="m 42.961333,980.23778 c -0.5537,0.01 -1.1389,0.0851 -1.7522,0.23969 a 1.0001,1.0001 0 0 0 -0.001,0 c -2.2622,0.5723 -6.3162,2.18815 -10.7009,4.09562 -4.3848,1.90748 -9.0374,4.09522 -12.275,5.78219 a 1.0001,1.0001 0 0 0 -0.001,6.2e-4 c -1.3932,0.72727 -2.349098,1.65664 -2.858698,2.69 -0.5096,1.03336 -0.5414,2.17471 -0.1216,3.12188 0.8396,1.89433 3.310498,2.80901 6.029398,1.86656 8.5143,-2.95142 13.3824,-4.78021 18.2997,-6.36969 10e-4,-2e-4 10e-4,-4.2e-4 0.002,-6.2e-4 1.4237,-0.45704 1.8501,-0.32445 1.8312,-0.33594 -0.009,-0.006 0.0165,0 0.1031,0.16875 0.0845,0.16446 0.1982,0.45238 0.375,0.79813 0.5379,1.1201 0.8165,1.69532 1.0119,2.08969 -5.5018,4.22427 -9.9823,7.38544 -16.1394,11.83964 a 1.0001,1.0001 0 0 0 0.3522,1.7825 c 0,0 7.7485,1.8777 16.5825,0.016 8.6105,-1.8142 10.0352,-2.4505 17.4716,-3.395 a 1.0001,1.0001 0 0 0 0.0369,0 c 0.2527,-0.042 0.6129,-0.097 1.0103,-0.2612 0.3973,-0.1647 0.8868,-0.4891 1.1293,-1.061 0.2426,-0.5718 0.1725,-1.2303 -0.0871,-1.8768 -0.2597,-0.6465 -0.7102,-1.3491 -1.4213,-2.21877 a 1.0001,1.0001 0 0 0 -0.001,-10e-4 c -1.348,-1.6435 -4.3227,-5.2425 -7.0994,-8.6125 -2.7767,-3.37 -5.3971,-6.56623 -5.8831,-7.2025 a 1.0001,1.0001 0 0 0 -0.005,-0.006 c -0.5956,-0.76721 -1.4666,-1.7424 -2.7344,-2.41156 -0.8716,-0.46005 -1.9366,-0.75492 -3.1547,-0.73344 z m 0.2763,1.98875 c 0.7645,0.0176 1.3908,0.22108 1.9447,0.51344 0.8834,0.46632 1.57,1.20231 2.0834,1.86281 0.002,0.002 0.003,0.004 0.005,0.006 0.6197,0.81032 3.1513,3.88895 5.9241,7.25406 2.7776,3.37113 5.7544,6.97255 7.0956,8.60786 0,4e-4 10e-4,8e-4 10e-4,0 0.6326,0.7738 0.9725,1.3481 1.1125,1.6968 0.0693,0.1725 0.0894,0.2728 0.0947,0.3241 -0.0116,0.01 -0.0123,0.01 -0.0469,0.021 -0.1156,0.048 -0.3315,0.096 -0.5597,0.1337 -7.4925,0.9528 -9.0546,1.6167 -17.6056,3.4185 -5.5318,1.1656 -10.6207,0.7827 -13.429,0.3931 5.4023,-3.8961 9.7038,-6.96616 14.9259,-10.99687 a 1.0001,1.0001 0 0 0 0.2728,-1.25938 c -0.2659,-0.50241 -0.3927,-0.7561 -1.3615,-2.77375 a 1.0001,1.0001 0 0 0 -0.0132,-0.0263 c -0.1249,-0.24187 -0.2258,-0.50865 -0.3853,-0.81937 -0.1595,-0.31072 -0.4082,-0.69938 -0.8425,-0.96375 -0.8685,-0.52873 -1.8914,-0.37111 -3.4847,0.14062 a 1.0001,1.0001 0 0 0 -0.002,6.2e-4 c -4.9772,1.60881 -9.8446,3.43846 -18.3412,6.38375 -2.0389,0.70674 -3.1961,0.002 -3.5459,-0.78718 -0.175,-0.39467 -0.1919,-0.86165 0.0868,-1.42688 0.2787,-0.56512 0.8846,-1.22455 1.9897,-1.80156 0,-10e-5 0,-2.1e-4 0.001,-3.1e-4 3.1694,-1.65135 7.8023,-3.83103 12.1482,-5.72156 4.3456,-1.89045 8.4671,-3.50295 10.3931,-3.99032 0,-10e-5 0,-2.6e-4 10e-4,-3.1e-4 0.572,-0.14415 1.0802,-0.20053 1.5388,-0.19 z" fill="#FFFFFF" fill-opacity="1" fill-rule="evenodd" stroke="none" marker="none" visibility="visible" display="inline" overflow="visible"></path><path style="text-indent:0;text-transform:none;direction:ltr;block-progression:tb;baseline-shift:baseline;color:#000000;enable-background:accumulate;" d="m 73.148833,980.59716 c -5.388,0 -9.7859,4.38754 -9.7859,9.78562 0,5.3892 4.3966,9.78562 9.7859,9.78562 5.3982,0 9.7857,-4.3978 9.7857,-9.78562 0,-5.39671 -4.3889,-9.78562 -9.7857,-9.78562 z m 0,2 c 4.3186,0 7.7857,3.46711 7.7857,7.78562 0,4.3074 -3.4684,7.78563 -7.7857,7.78563 -4.3062,0 -7.7859,-3.4796 -7.7859,-7.78563 0,-4.31713 3.4783,-7.78562 7.7859,-7.78562 z" fill="#FFFFFF" fill-opacity="1" fill-rule="evenodd" stroke="none" marker="none" visibility="visible" display="inline" overflow="visible"></path></g></svg>
